<mxfile host="Electron" agent="Mozilla/5.0 (X11; Linux x86_64) AppleWebKit/537.36 (KHTML, like Gecko) draw.io/28.0.6 Chrome/138.0.7204.100 Electron/37.2.3 Safari/537.36" version="28.0.6">
  <diagram name="Ready-to-Fly Process" id="RTF-Process">
    <mxGraphModel dx="2034" dy="1435" grid="1" gridSize="10" guides="1" tooltips="1" connect="1" arrows="1" fold="1" page="1" pageScale="1" pageWidth="1100" pageHeight="850" math="0" shadow="0">
      <root>
        <mxCell id="0" />
        <mxCell id="1" parent="0" />
        <mxCell id="2QeHFksdaz89iDIO9B9A-14" value="" style="ellipse;shape=cloud;whiteSpace=wrap;html=1;fillColor=none;" parent="1" vertex="1">
          <mxGeometry x="-1040" y="40" width="1940" height="230" as="geometry" />
        </mxCell>
        <mxCell id="2QeHFksdaz89iDIO9B9A-10" value="" style="shape=partialRectangle;whiteSpace=wrap;html=1;bottom=0;right=0;fillColor=none;" parent="1" vertex="1">
          <mxGeometry x="220" y="130" width="270" height="80" as="geometry" />
        </mxCell>
        <mxCell id="4uZiJ-rkuIo0SORuHt0V-53" value="&lt;span style=&quot;color: rgba(0, 0, 0, 0); font-family: monospace; font-size: 0px; text-align: start; text-wrap-mode: nowrap;&quot;&gt;%3CmxGraphModel%3E%3Croot%3E%3CmxCell%20id%3D%220%22%2F%3E%3CmxCell%20id%3D%221%22%20parent%3D%220%22%2F%3E%3CmxCell%20id%3D%222%22%20value%3D%22Take-off%20%E2%9E%9C%20Fly%20to%20room%20centre%20with%20joystick%26amp%3Bnbsp%3B%E2%9E%9C%20Pitch%20MRFT%20%E2%9E%9C%20Roll%20MRFT%26amp%3Bnbsp%3B%E2%9E%9C%20Z%20MRFT%20%E2%9E%9C%20Land%22%20style%3D%22rounded%3D0%3BwhiteSpace%3Dwrap%3Bhtml%3D1%3B%22%20vertex%3D%221%22%20parent%3D%221%22%3E%3CmxGeometry%20x%3D%221100%22%20y%3D%22400%22%20width%3D%22160%22%20height%3D%2280%22%20as%3D%22geometry%22%2F%3E%3C%2FmxCell%3E%3C%2Froot%3E%3C%2FmxGraphModel%3E&lt;/span&gt;" style="rounded=1;whiteSpace=wrap;html=1;fillColor=none;dashed=1;" parent="1" vertex="1">
          <mxGeometry x="-10" y="-573" width="1830" height="180" as="geometry" />
        </mxCell>
        <mxCell id="4uZiJ-rkuIo0SORuHt0V-47" value="&lt;span style=&quot;color: rgba(0, 0, 0, 0); font-family: monospace; font-size: 0px; text-align: start; text-wrap-mode: nowrap;&quot;&gt;%3CmxGraphModel%3E%3Croot%3E%3CmxCell%20id%3D%220%22%2F%3E%3CmxCell%20id%3D%221%22%20parent%3D%220%22%2F%3E%3CmxCell%20id%3D%222%22%20value%3D%22Take-off%20%E2%9E%9C%20Fly%20to%20room%20centre%20with%20joystick%26amp%3Bnbsp%3B%E2%9E%9C%20Pitch%20MRFT%20%E2%9E%9C%20Roll%20MRFT%26amp%3Bnbsp%3B%E2%9E%9C%20Z%20MRFT%20%E2%9E%9C%20Land%22%20style%3D%22rounded%3D0%3BwhiteSpace%3Dwrap%3Bhtml%3D1%3B%22%20vertex%3D%221%22%20parent%3D%221%22%3E%3CmxGeometry%20x%3D%221100%22%20y%3D%22400%22%20width%3D%22160%22%20height%3D%2280%22%20as%3D%22geometry%22%2F%3E%3C%2FmxCell%3E%3C%2Froot%3E%3C%2FmxGraphModel%3E&lt;/span&gt;" style="rounded=1;whiteSpace=wrap;html=1;fillColor=none;dashed=1;" parent="1" vertex="1">
          <mxGeometry x="390" y="410" width="1440" height="180" as="geometry" />
        </mxCell>
        <mxCell id="4uZiJ-rkuIo0SORuHt0V-43" value="&lt;span style=&quot;color: rgba(0, 0, 0, 0); font-family: monospace; font-size: 0px; text-align: start; text-wrap-mode: nowrap;&quot;&gt;%3CmxGraphModel%3E%3Croot%3E%3CmxCell%20id%3D%220%22%2F%3E%3CmxCell%20id%3D%221%22%20parent%3D%220%22%2F%3E%3CmxCell%20id%3D%222%22%20value%3D%22Take-off%20%E2%9E%9C%20Fly%20to%20room%20centre%20with%20joystick%26amp%3Bnbsp%3B%E2%9E%9C%20Pitch%20MRFT%20%E2%9E%9C%20Roll%20MRFT%26amp%3Bnbsp%3B%E2%9E%9C%20Z%20MRFT%20%E2%9E%9C%20Land%22%20style%3D%22rounded%3D0%3BwhiteSpace%3Dwrap%3Bhtml%3D1%3B%22%20vertex%3D%221%22%20parent%3D%221%22%3E%3CmxGeometry%20x%3D%221100%22%20y%3D%22400%22%20width%3D%22160%22%20height%3D%2280%22%20as%3D%22geometry%22%2F%3E%3C%2FmxCell%3E%3C%2Froot%3E%3C%2FmxGraphModel%3E&lt;/span&gt;" style="rounded=1;whiteSpace=wrap;html=1;fillColor=none;dashed=1;" parent="1" vertex="1">
          <mxGeometry x="1140" y="450" width="670" height="120" as="geometry" />
        </mxCell>
        <mxCell id="4uZiJ-rkuIo0SORuHt0V-36" value="&lt;span style=&quot;color: rgba(0, 0, 0, 0); font-family: monospace; font-size: 0px; text-align: start; text-wrap-mode: nowrap;&quot;&gt;%3CmxGraphModel%3E%3Croot%3E%3CmxCell%20id%3D%220%22%2F%3E%3CmxCell%20id%3D%221%22%20parent%3D%220%22%2F%3E%3CmxCell%20id%3D%222%22%20value%3D%22Take-off%20%E2%9E%9C%20Fly%20to%20room%20centre%20with%20joystick%26amp%3Bnbsp%3B%E2%9E%9C%20Pitch%20MRFT%20%E2%9E%9C%20Roll%20MRFT%26amp%3Bnbsp%3B%E2%9E%9C%20Z%20MRFT%20%E2%9E%9C%20Land%22%20style%3D%22rounded%3D0%3BwhiteSpace%3Dwrap%3Bhtml%3D1%3B%22%20vertex%3D%221%22%20parent%3D%221%22%3E%3CmxGeometry%20x%3D%221100%22%20y%3D%22400%22%20width%3D%22160%22%20height%3D%2280%22%20as%3D%22geometry%22%2F%3E%3C%2FmxCell%3E%3C%2Froot%3E%3C%2FmxGraphModel%3E&lt;/span&gt;" style="rounded=1;whiteSpace=wrap;html=1;fillColor=none;dashed=1;" parent="1" vertex="1">
          <mxGeometry x="410" y="450" width="670" height="120" as="geometry" />
        </mxCell>
        <mxCell id="4uZiJ-rkuIo0SORuHt0V-8" value="" style="edgeStyle=orthogonalEdgeStyle;rounded=0;orthogonalLoop=1;jettySize=auto;html=1;entryX=0;entryY=0.459;entryDx=0;entryDy=0;entryPerimeter=0;" parent="1" source="n0" target="4uZiJ-rkuIo0SORuHt0V-1" edge="1">
          <mxGeometry relative="1" as="geometry">
            <mxPoint x="-440" y="540" as="targetPoint" />
          </mxGeometry>
        </mxCell>
        <mxCell id="n0" value="Start&#xa;(Ready-to-Fly)" style="rounded=1;whiteSpace=wrap;html=1;" parent="1" vertex="1">
          <mxGeometry x="-590" y="480" width="120" height="60" as="geometry" />
        </mxCell>
        <mxCell id="n2" value="Take-off âžœ Hover âžœ Initiate bias calibration âžœ Wait for it to be done âžœ&amp;nbsp;Land&lt;br&gt;&lt;br&gt;&lt;div&gt;This step records and saves the UAV&#39;s bias&lt;/div&gt;" style="rounded=0;whiteSpace=wrap;html=1;" parent="1" vertex="1">
          <mxGeometry x="170" y="465" width="190" height="90" as="geometry" />
        </mxCell>
        <mxCell id="4uZiJ-rkuIo0SORuHt0V-32" value="" style="edgeStyle=orthogonalEdgeStyle;rounded=0;orthogonalLoop=1;jettySize=auto;html=1;" parent="1" source="n3" target="4uZiJ-rkuIo0SORuHt0V-30" edge="1">
          <mxGeometry relative="1" as="geometry" />
        </mxCell>
        <mxCell id="n3" value="Take-off âžœ Fly to room centre with joystick&amp;nbsp;âžœ Pitch MRFT âžœ Roll MRFT&amp;nbsp;âžœ Z MRFT âžœ Land" style="rounded=0;whiteSpace=wrap;html=1;" parent="1" vertex="1">
          <mxGeometry x="430" y="470" width="160" height="80" as="geometry" />
        </mxCell>
        <mxCell id="4uZiJ-rkuIo0SORuHt0V-45" value="" style="edgeStyle=orthogonalEdgeStyle;rounded=0;orthogonalLoop=1;jettySize=auto;html=1;entryX=0;entryY=0.5;entryDx=0;entryDy=0;" parent="1" source="n4" target="4uZiJ-rkuIo0SORuHt0V-39" edge="1">
          <mxGeometry relative="1" as="geometry" />
        </mxCell>
        <mxCell id="n4" value="Update KP/KD&lt;br&gt;for Roll, Pitch, and Z in the UAV&#39;s Dynamo_db by changing the&amp;nbsp; values in the Confg-pid table.&amp;nbsp;Restart LEAF_FC" style="rounded=0;whiteSpace=wrap;html=1;" parent="1" vertex="1">
          <mxGeometry x="870" y="470" width="190" height="80" as="geometry" />
        </mxCell>
        <mxCell id="n7" value="Finish&#xa;Drone Ready to Fly ðŸ˜Š" style="rounded=1;whiteSpace=wrap;html=1;" parent="1" vertex="1">
          <mxGeometry x="-190" y="-333" width="140" height="60" as="geometry" />
        </mxCell>
        <mxCell id="e2" style="endArrow=classic;html=1;" parent="1" source="n2" target="n3" edge="1">
          <mxGeometry relative="1" as="geometry" />
        </mxCell>
        <mxCell id="4uZiJ-rkuIo0SORuHt0V-7" value="" style="group" parent="1" vertex="1" connectable="0">
          <mxGeometry x="-410" y="310" width="200" height="400" as="geometry" />
        </mxCell>
        <mxCell id="4uZiJ-rkuIo0SORuHt0V-1" value="&lt;span style=&quot;color: rgba(0, 0, 0, 0); font-family: monospace; font-size: 0px; text-align: start; text-wrap-mode: nowrap;&quot;&gt;%3CmxGraphModel%3E%3Croot%3E%3CmxCell%20id%3D%220%22%2F%3E%3CmxCell%20id%3D%221%22%20parent%3D%220%22%2F%3E%3CmxCell%20id%3D%222%22%20value%3D%22Take-off%20%E2%9E%9C%20Fly%20to%20room%20centre%20with%20joystick%26amp%3Bnbsp%3B%E2%9E%9C%20Pitch%20MRFT%20%E2%9E%9C%20Roll%20MRFT%26amp%3Bnbsp%3B%E2%9E%9C%20Z%20MRFT%20%E2%9E%9C%20Land%22%20style%3D%22rounded%3D0%3BwhiteSpace%3Dwrap%3Bhtml%3D1%3B%22%20vertex%3D%221%22%20parent%3D%221%22%3E%3CmxGeometry%20x%3D%221100%22%20y%3D%22400%22%20width%3D%22160%22%20height%3D%2280%22%20as%3D%22geometry%22%2F%3E%3C%2FmxCell%3E%3C%2Froot%3E%3C%2FmxGraphModel%3E&lt;/span&gt;" style="rounded=1;whiteSpace=wrap;html=1;fillColor=none;dashed=1;" parent="4uZiJ-rkuIo0SORuHt0V-7" vertex="1">
          <mxGeometry y="30" width="200" height="370" as="geometry" />
        </mxCell>
        <mxCell id="4uZiJ-rkuIo0SORuHt0V-2" value="Pre-Flight Checks" style="text;strokeColor=none;align=center;fillColor=none;html=1;verticalAlign=middle;whiteSpace=wrap;rounded=0;" parent="4uZiJ-rkuIo0SORuHt0V-7" vertex="1">
          <mxGeometry x="40" width="120" height="30" as="geometry" />
        </mxCell>
        <mxCell id="4uZiJ-rkuIo0SORuHt0V-3" value="Ensure the following:" style="text;strokeColor=none;align=center;fillColor=none;html=1;verticalAlign=middle;whiteSpace=wrap;rounded=0;" parent="4uZiJ-rkuIo0SORuHt0V-7" vertex="1">
          <mxGeometry x="40" y="30" width="120" height="30" as="geometry" />
        </mxCell>
        <mxCell id="4uZiJ-rkuIo0SORuHt0V-4" value="Motors Calibrated and correct PWM set" style="rounded=0;whiteSpace=wrap;html=1;" parent="4uZiJ-rkuIo0SORuHt0V-7" vertex="1">
          <mxGeometry x="40" y="70" width="120" height="60" as="geometry" />
        </mxCell>
        <mxCell id="4uZiJ-rkuIo0SORuHt0V-5" value="Sensors Calibrated:&lt;div&gt;â€¢ Compass&lt;/div&gt;&lt;div&gt;â€¢ Gyroscope&lt;/div&gt;&lt;div&gt;â€¢ Level Horizon&lt;/div&gt;&lt;div&gt;â€¢ Accelerometer&lt;/div&gt;" style="rounded=0;whiteSpace=wrap;html=1;" parent="4uZiJ-rkuIo0SORuHt0V-7" vertex="1">
          <mxGeometry x="40" y="150" width="120" height="110" as="geometry" />
        </mxCell>
        <mxCell id="4uZiJ-rkuIo0SORuHt0V-6" value="Optitrack system calibrated, rigid body created, streaming ID set, Positioning matches the topic /dynamo_db/estimator/pos" style="rounded=0;whiteSpace=wrap;html=1;" parent="4uZiJ-rkuIo0SORuHt0V-7" vertex="1">
          <mxGeometry x="25" y="280" width="150" height="90" as="geometry" />
        </mxCell>
        <mxCell id="4uZiJ-rkuIo0SORuHt0V-10" value="" style="edgeStyle=orthogonalEdgeStyle;rounded=0;orthogonalLoop=1;jettySize=auto;html=1;entryX=0;entryY=0.5;entryDx=0;entryDy=0;exitX=1;exitY=0.459;exitDx=0;exitDy=0;exitPerimeter=0;" parent="1" source="4uZiJ-rkuIo0SORuHt0V-1" target="4uZiJ-rkuIo0SORuHt0V-13" edge="1">
          <mxGeometry relative="1" as="geometry">
            <mxPoint x="-190" y="550" as="sourcePoint" />
            <mxPoint x="-160" y="510" as="targetPoint" />
          </mxGeometry>
        </mxCell>
        <mxCell id="4uZiJ-rkuIo0SORuHt0V-27" value="" style="edgeStyle=orthogonalEdgeStyle;rounded=0;orthogonalLoop=1;jettySize=auto;html=1;" parent="1" source="4uZiJ-rkuIo0SORuHt0V-12" target="n2" edge="1">
          <mxGeometry relative="1" as="geometry" />
        </mxCell>
        <mxCell id="4uZiJ-rkuIo0SORuHt0V-12" value="Idle the drone and do a killswitch test" style="rounded=0;whiteSpace=wrap;html=1;" parent="1" vertex="1">
          <mxGeometry x="20" y="485" width="90" height="50" as="geometry" />
        </mxCell>
        <mxCell id="4uZiJ-rkuIo0SORuHt0V-15" value="" style="edgeStyle=orthogonalEdgeStyle;rounded=0;orthogonalLoop=1;jettySize=auto;html=1;entryX=0.5;entryY=1;entryDx=0;entryDy=0;exitX=0.5;exitY=1;exitDx=0;exitDy=0;" parent="1" source="4uZiJ-rkuIo0SORuHt0V-13" target="4uZiJ-rkuIo0SORuHt0V-1" edge="1">
          <mxGeometry relative="1" as="geometry">
            <mxPoint x="-100" y="680" as="targetPoint" />
            <Array as="points">
              <mxPoint x="-100" y="760" />
              <mxPoint x="-310" y="760" />
            </Array>
          </mxGeometry>
        </mxCell>
        <mxCell id="4uZiJ-rkuIo0SORuHt0V-16" value="" style="edgeStyle=orthogonalEdgeStyle;rounded=0;orthogonalLoop=1;jettySize=auto;html=1;" parent="1" source="4uZiJ-rkuIo0SORuHt0V-13" target="4uZiJ-rkuIo0SORuHt0V-12" edge="1">
          <mxGeometry relative="1" as="geometry" />
        </mxCell>
        <mxCell id="4uZiJ-rkuIo0SORuHt0V-13" value="Pre-flight check passed ?" style="rhombus;whiteSpace=wrap;html=1;" parent="1" vertex="1">
          <mxGeometry x="-160" y="450" width="120" height="120" as="geometry" />
        </mxCell>
        <mxCell id="4uZiJ-rkuIo0SORuHt0V-24" value="Yes" style="text;strokeColor=none;align=center;fillColor=none;html=1;verticalAlign=middle;whiteSpace=wrap;rounded=0;" parent="1" vertex="1">
          <mxGeometry x="-50" y="485" width="60" height="30" as="geometry" />
        </mxCell>
        <mxCell id="4uZiJ-rkuIo0SORuHt0V-25" value="No" style="text;strokeColor=none;align=center;fillColor=none;html=1;verticalAlign=middle;whiteSpace=wrap;rounded=0;" parent="1" vertex="1">
          <mxGeometry x="-240" y="740" width="60" height="30" as="geometry" />
        </mxCell>
        <mxCell id="4uZiJ-rkuIo0SORuHt0V-28" value="BIAS Calibration" style="text;strokeColor=none;align=center;fillColor=none;html=1;verticalAlign=middle;whiteSpace=wrap;rounded=0;" parent="1" vertex="1">
          <mxGeometry x="212.5" y="440" width="105" height="30" as="geometry" />
        </mxCell>
        <mxCell id="4uZiJ-rkuIo0SORuHt0V-33" value="" style="edgeStyle=orthogonalEdgeStyle;rounded=0;orthogonalLoop=1;jettySize=auto;html=1;" parent="1" source="4uZiJ-rkuIo0SORuHt0V-30" target="n4" edge="1">
          <mxGeometry relative="1" as="geometry" />
        </mxCell>
        <mxCell id="4uZiJ-rkuIo0SORuHt0V-30" value="Using the Leaf_Tuner app, find the KP, KD, and Class for the Pitch, Roll, and Z.&lt;br&gt;Note them down." style="rounded=0;whiteSpace=wrap;html=1;" parent="1" vertex="1">
          <mxGeometry x="650" y="470" width="160" height="80" as="geometry" />
        </mxCell>
        <mxCell id="4uZiJ-rkuIo0SORuHt0V-37" value="Inner-&lt;span style=&quot;background-color: transparent; color: light-dark(rgb(0, 0, 0), rgb(255, 255, 255));&quot;&gt;Loop Tuning&lt;/span&gt;" style="text;strokeColor=none;align=center;fillColor=none;html=1;verticalAlign=middle;whiteSpace=wrap;rounded=0;" parent="1" vertex="1">
          <mxGeometry x="692.5" y="420" width="105" height="30" as="geometry" />
        </mxCell>
        <mxCell id="4uZiJ-rkuIo0SORuHt0V-38" value="" style="edgeStyle=orthogonalEdgeStyle;rounded=0;orthogonalLoop=1;jettySize=auto;html=1;" parent="1" source="4uZiJ-rkuIo0SORuHt0V-39" target="4uZiJ-rkuIo0SORuHt0V-42" edge="1">
          <mxGeometry relative="1" as="geometry" />
        </mxCell>
        <mxCell id="4uZiJ-rkuIo0SORuHt0V-39" value="Take-off âžœ Fly to room centre with joystick&amp;nbsp;âžœ X MRFT âžœ Y MRFT âžœ Land" style="rounded=0;whiteSpace=wrap;html=1;" parent="1" vertex="1">
          <mxGeometry x="1160" y="470" width="160" height="80" as="geometry" />
        </mxCell>
        <mxCell id="4uZiJ-rkuIo0SORuHt0V-40" value="Update KP/KD&lt;br&gt;for X and Y in the UAV&#39;s Dynamo_db by changing the&amp;nbsp; values in the Confg-pid table.&amp;nbsp;Restart LEAF_FC" style="rounded=0;whiteSpace=wrap;html=1;" parent="1" vertex="1">
          <mxGeometry x="1600" y="470" width="190" height="80" as="geometry" />
        </mxCell>
        <mxCell id="4uZiJ-rkuIo0SORuHt0V-41" value="" style="edgeStyle=orthogonalEdgeStyle;rounded=0;orthogonalLoop=1;jettySize=auto;html=1;" parent="1" source="4uZiJ-rkuIo0SORuHt0V-42" target="4uZiJ-rkuIo0SORuHt0V-40" edge="1">
          <mxGeometry relative="1" as="geometry" />
        </mxCell>
        <mxCell id="4uZiJ-rkuIo0SORuHt0V-42" value="Using the Leaf_Tuner app, find the KP and KD for the X and Y.&lt;br&gt;Note them down." style="rounded=0;whiteSpace=wrap;html=1;" parent="1" vertex="1">
          <mxGeometry x="1380" y="470" width="160" height="80" as="geometry" />
        </mxCell>
        <mxCell id="4uZiJ-rkuIo0SORuHt0V-44" value="Outer-&lt;span style=&quot;background-color: transparent; color: light-dark(rgb(0, 0, 0), rgb(255, 255, 255));&quot;&gt;Loop Tuning&lt;/span&gt;" style="text;strokeColor=none;align=center;fillColor=none;html=1;verticalAlign=middle;whiteSpace=wrap;rounded=0;" parent="1" vertex="1">
          <mxGeometry x="1422.5" y="420" width="105" height="30" as="geometry" />
        </mxCell>
        <mxCell id="4uZiJ-rkuIo0SORuHt0V-48" value="Initial Tuning - Without Payload" style="text;strokeColor=none;align=center;fillColor=none;html=1;verticalAlign=middle;whiteSpace=wrap;rounded=0;" parent="1" vertex="1">
          <mxGeometry x="1013.75" y="380" width="192.5" height="30" as="geometry" />
        </mxCell>
        <mxCell id="4uZiJ-rkuIo0SORuHt0V-52" value="" style="edgeStyle=orthogonalEdgeStyle;rounded=0;orthogonalLoop=1;jettySize=auto;html=1;" parent="1" source="4uZiJ-rkuIo0SORuHt0V-50" target="n7" edge="1">
          <mxGeometry relative="1" as="geometry" />
        </mxCell>
        <mxCell id="4uZiJ-rkuIo0SORuHt0V-73" value="" style="edgeStyle=orthogonalEdgeStyle;rounded=0;orthogonalLoop=1;jettySize=auto;html=1;" parent="1" source="4uZiJ-rkuIo0SORuHt0V-50" target="4uZiJ-rkuIo0SORuHt0V-72" edge="1">
          <mxGeometry relative="1" as="geometry" />
        </mxCell>
        <mxCell id="4uZiJ-rkuIo0SORuHt0V-50" value="Is there a Payload?" style="rhombus;whiteSpace=wrap;html=1;" parent="1" vertex="1">
          <mxGeometry x="-180" y="-543" width="120" height="120" as="geometry" />
        </mxCell>
        <mxCell id="4uZiJ-rkuIo0SORuHt0V-51" value="" style="edgeStyle=orthogonalEdgeStyle;rounded=0;orthogonalLoop=1;jettySize=auto;html=1;exitX=1;exitY=0.5;exitDx=0;exitDy=0;entryX=-0.021;entryY=0.531;entryDx=0;entryDy=0;entryPerimeter=0;" parent="1" source="4uZiJ-rkuIo0SORuHt0V-40" target="4uZiJ-rkuIo0SORuHt0V-82" edge="1">
          <mxGeometry relative="1" as="geometry">
            <mxPoint x="1640" y="630" as="sourcePoint" />
            <mxPoint x="1960" y="510" as="targetPoint" />
          </mxGeometry>
        </mxCell>
        <mxCell id="4uZiJ-rkuIo0SORuHt0V-54" value="&lt;span style=&quot;color: rgba(0, 0, 0, 0); font-family: monospace; font-size: 0px; text-align: start; text-wrap-mode: nowrap;&quot;&gt;%3CmxGraphModel%3E%3Croot%3E%3CmxCell%20id%3D%220%22%2F%3E%3CmxCell%20id%3D%221%22%20parent%3D%220%22%2F%3E%3CmxCell%20id%3D%222%22%20value%3D%22Take-off%20%E2%9E%9C%20Fly%20to%20room%20centre%20with%20joystick%26amp%3Bnbsp%3B%E2%9E%9C%20Pitch%20MRFT%20%E2%9E%9C%20Roll%20MRFT%26amp%3Bnbsp%3B%E2%9E%9C%20Z%20MRFT%20%E2%9E%9C%20Land%22%20style%3D%22rounded%3D0%3BwhiteSpace%3Dwrap%3Bhtml%3D1%3B%22%20vertex%3D%221%22%20parent%3D%221%22%3E%3CmxGeometry%20x%3D%221100%22%20y%3D%22400%22%20width%3D%22160%22%20height%3D%2280%22%20as%3D%22geometry%22%2F%3E%3C%2FmxCell%3E%3C%2Froot%3E%3C%2FmxGraphModel%3E&lt;/span&gt;" style="rounded=1;whiteSpace=wrap;html=1;fillColor=none;dashed=1;" parent="1" vertex="1">
          <mxGeometry x="1130" y="-543" width="670" height="120" as="geometry" />
        </mxCell>
        <mxCell id="4uZiJ-rkuIo0SORuHt0V-55" value="&lt;span style=&quot;color: rgba(0, 0, 0, 0); font-family: monospace; font-size: 0px; text-align: start; text-wrap-mode: nowrap;&quot;&gt;%3CmxGraphModel%3E%3Croot%3E%3CmxCell%20id%3D%220%22%2F%3E%3CmxCell%20id%3D%221%22%20parent%3D%220%22%2F%3E%3CmxCell%20id%3D%222%22%20value%3D%22Take-off%20%E2%9E%9C%20Fly%20to%20room%20centre%20with%20joystick%26amp%3Bnbsp%3B%E2%9E%9C%20Pitch%20MRFT%20%E2%9E%9C%20Roll%20MRFT%26amp%3Bnbsp%3B%E2%9E%9C%20Z%20MRFT%20%E2%9E%9C%20Land%22%20style%3D%22rounded%3D0%3BwhiteSpace%3Dwrap%3Bhtml%3D1%3B%22%20vertex%3D%221%22%20parent%3D%221%22%3E%3CmxGeometry%20x%3D%221100%22%20y%3D%22400%22%20width%3D%22160%22%20height%3D%2280%22%20as%3D%22geometry%22%2F%3E%3C%2FmxCell%3E%3C%2Froot%3E%3C%2FmxGraphModel%3E&lt;/span&gt;" style="rounded=1;whiteSpace=wrap;html=1;fillColor=none;dashed=1;" parent="1" vertex="1">
          <mxGeometry x="400" y="-543" width="670" height="120" as="geometry" />
        </mxCell>
        <mxCell id="4uZiJ-rkuIo0SORuHt0V-56" value="" style="edgeStyle=orthogonalEdgeStyle;rounded=0;orthogonalLoop=1;jettySize=auto;html=1;" parent="1" source="4uZiJ-rkuIo0SORuHt0V-57" target="4uZiJ-rkuIo0SORuHt0V-61" edge="1">
          <mxGeometry relative="1" as="geometry" />
        </mxCell>
        <mxCell id="4uZiJ-rkuIo0SORuHt0V-57" value="Take-off âžœ Fly to room centre with joystick&amp;nbsp;âžœ Pitch MRFT âžœ Roll MRFT&amp;nbsp;âžœ Z MRFT âžœ Land" style="rounded=0;whiteSpace=wrap;html=1;" parent="1" vertex="1">
          <mxGeometry x="420" y="-523" width="160" height="80" as="geometry" />
        </mxCell>
        <mxCell id="4uZiJ-rkuIo0SORuHt0V-58" value="" style="edgeStyle=orthogonalEdgeStyle;rounded=0;orthogonalLoop=1;jettySize=auto;html=1;entryX=0;entryY=0.5;entryDx=0;entryDy=0;" parent="1" source="4uZiJ-rkuIo0SORuHt0V-59" target="4uZiJ-rkuIo0SORuHt0V-64" edge="1">
          <mxGeometry relative="1" as="geometry" />
        </mxCell>
        <mxCell id="4uZiJ-rkuIo0SORuHt0V-59" value="Update KP/KD&lt;br&gt;for Roll, Pitch, and Z in the UAV&#39;s Dynamo_db by changing the&amp;nbsp; values in the Confg-pid table.&amp;nbsp;Restart LEAF_FC" style="rounded=0;whiteSpace=wrap;html=1;" parent="1" vertex="1">
          <mxGeometry x="860" y="-523" width="190" height="80" as="geometry" />
        </mxCell>
        <mxCell id="4uZiJ-rkuIo0SORuHt0V-60" value="" style="edgeStyle=orthogonalEdgeStyle;rounded=0;orthogonalLoop=1;jettySize=auto;html=1;" parent="1" source="4uZiJ-rkuIo0SORuHt0V-61" target="4uZiJ-rkuIo0SORuHt0V-59" edge="1">
          <mxGeometry relative="1" as="geometry" />
        </mxCell>
        <mxCell id="4uZiJ-rkuIo0SORuHt0V-61" value="Using the Leaf_Tuner app, find the KP, KD, and Class for the Pitch, Roll, and Z.&lt;br&gt;Note them down." style="rounded=0;whiteSpace=wrap;html=1;" parent="1" vertex="1">
          <mxGeometry x="640" y="-523" width="160" height="80" as="geometry" />
        </mxCell>
        <mxCell id="4uZiJ-rkuIo0SORuHt0V-62" value="Inner-&lt;span style=&quot;background-color: transparent; color: light-dark(rgb(0, 0, 0), rgb(255, 255, 255));&quot;&gt;Loop Tuning&lt;/span&gt;" style="text;strokeColor=none;align=center;fillColor=none;html=1;verticalAlign=middle;whiteSpace=wrap;rounded=0;" parent="1" vertex="1">
          <mxGeometry x="682.5" y="-573" width="105" height="30" as="geometry" />
        </mxCell>
        <mxCell id="4uZiJ-rkuIo0SORuHt0V-63" value="" style="edgeStyle=orthogonalEdgeStyle;rounded=0;orthogonalLoop=1;jettySize=auto;html=1;" parent="1" source="4uZiJ-rkuIo0SORuHt0V-64" target="4uZiJ-rkuIo0SORuHt0V-67" edge="1">
          <mxGeometry relative="1" as="geometry" />
        </mxCell>
        <mxCell id="4uZiJ-rkuIo0SORuHt0V-64" value="Take-off âžœ Fly to room centre with joystick&amp;nbsp;âžœ X MRFT âžœ Y MRFT âžœ Land" style="rounded=0;whiteSpace=wrap;html=1;" parent="1" vertex="1">
          <mxGeometry x="1150" y="-523" width="160" height="80" as="geometry" />
        </mxCell>
        <mxCell id="4uZiJ-rkuIo0SORuHt0V-65" value="Update KP/KD&lt;br&gt;for X and Y in the UAV&#39;s Dynamo_db by changing the&amp;nbsp; values in the Confg-pid table.&amp;nbsp;Restart LEAF_FC" style="rounded=0;whiteSpace=wrap;html=1;" parent="1" vertex="1">
          <mxGeometry x="1590" y="-523" width="190" height="80" as="geometry" />
        </mxCell>
        <mxCell id="4uZiJ-rkuIo0SORuHt0V-66" value="" style="edgeStyle=orthogonalEdgeStyle;rounded=0;orthogonalLoop=1;jettySize=auto;html=1;" parent="1" source="4uZiJ-rkuIo0SORuHt0V-67" target="4uZiJ-rkuIo0SORuHt0V-65" edge="1">
          <mxGeometry relative="1" as="geometry" />
        </mxCell>
        <mxCell id="4uZiJ-rkuIo0SORuHt0V-67" value="Using the Leaf_Tuner app, find the KP and KD for the X and Y.&lt;br&gt;Note them down." style="rounded=0;whiteSpace=wrap;html=1;" parent="1" vertex="1">
          <mxGeometry x="1370" y="-523" width="160" height="80" as="geometry" />
        </mxCell>
        <mxCell id="4uZiJ-rkuIo0SORuHt0V-68" value="Outer-&lt;span style=&quot;background-color: transparent; color: light-dark(rgb(0, 0, 0), rgb(255, 255, 255));&quot;&gt;Loop Tuning&lt;/span&gt;" style="text;strokeColor=none;align=center;fillColor=none;html=1;verticalAlign=middle;whiteSpace=wrap;rounded=0;" parent="1" vertex="1">
          <mxGeometry x="1412.5" y="-573" width="105" height="30" as="geometry" />
        </mxCell>
        <mxCell id="4uZiJ-rkuIo0SORuHt0V-69" value="Refined Tuning - With Payload" style="text;strokeColor=none;align=center;fillColor=none;html=1;verticalAlign=middle;whiteSpace=wrap;rounded=0;" parent="1" vertex="1">
          <mxGeometry x="893.75" y="-600" width="192.5" height="30" as="geometry" />
        </mxCell>
        <mxCell id="4uZiJ-rkuIo0SORuHt0V-77" value="" style="edgeStyle=orthogonalEdgeStyle;rounded=0;orthogonalLoop=1;jettySize=auto;html=1;" parent="1" source="4uZiJ-rkuIo0SORuHt0V-72" target="4uZiJ-rkuIo0SORuHt0V-76" edge="1">
          <mxGeometry relative="1" as="geometry" />
        </mxCell>
        <mxCell id="4uZiJ-rkuIo0SORuHt0V-72" value="Attach the payload and update the CTW (Coefficient of Thrust to Weight) to reflect the change in weight&amp;nbsp;&lt;br&gt;&lt;br&gt;You can find the parameter in config-robot_types" style="rounded=0;whiteSpace=wrap;html=1;" parent="1" vertex="1">
          <mxGeometry x="20" y="-553" width="190" height="140" as="geometry" />
        </mxCell>
        <mxCell id="4uZiJ-rkuIo0SORuHt0V-78" value="" style="edgeStyle=orthogonalEdgeStyle;rounded=0;orthogonalLoop=1;jettySize=auto;html=1;" parent="1" source="4uZiJ-rkuIo0SORuHt0V-76" target="4uZiJ-rkuIo0SORuHt0V-57" edge="1">
          <mxGeometry relative="1" as="geometry" />
        </mxCell>
        <mxCell id="4uZiJ-rkuIo0SORuHt0V-76" value="Restart Leaf FC to apply the changes" style="rounded=0;whiteSpace=wrap;html=1;" parent="1" vertex="1">
          <mxGeometry x="260" y="-523" width="110" height="80" as="geometry" />
        </mxCell>
        <mxCell id="4uZiJ-rkuIo0SORuHt0V-82" value="Finish&#xa;Drone Ready to Fly ðŸ˜Š" style="rounded=1;whiteSpace=wrap;html=1;" parent="1" vertex="1">
          <mxGeometry x="1920" y="478" width="140" height="60" as="geometry" />
        </mxCell>
        <mxCell id="4uZiJ-rkuIo0SORuHt0V-83" value="Yes" style="text;strokeColor=none;align=center;fillColor=none;html=1;verticalAlign=middle;whiteSpace=wrap;rounded=0;" parent="1" vertex="1">
          <mxGeometry x="-65" y="-504" width="60" height="30" as="geometry" />
        </mxCell>
        <mxCell id="4uZiJ-rkuIo0SORuHt0V-85" value="No" style="text;strokeColor=none;align=center;fillColor=none;html=1;verticalAlign=middle;whiteSpace=wrap;rounded=0;" parent="1" vertex="1">
          <mxGeometry x="-140" y="-403" width="60" height="30" as="geometry" />
        </mxCell>
        <mxCell id="2QeHFksdaz89iDIO9B9A-1" value="" style="shape=partialRectangle;whiteSpace=wrap;html=1;bottom=0;right=0;fillColor=none;" parent="1" vertex="1">
          <mxGeometry x="-560" y="130" width="690" height="80" as="geometry" />
        </mxCell>
        <mxCell id="2QeHFksdaz89iDIO9B9A-4" value="Ready-to-Integrate" style="rounded=0;whiteSpace=wrap;html=1;" parent="1" vertex="1">
          <mxGeometry x="-550" y="140" width="120" height="60" as="geometry" />
        </mxCell>
        <mxCell id="2QeHFksdaz89iDIO9B9A-5" value="Ready-for-FSAC" style="rounded=0;whiteSpace=wrap;html=1;" parent="1" vertex="1">
          <mxGeometry x="-410" y="140" width="120" height="60" as="geometry" />
        </mxCell>
        <mxCell id="2QeHFksdaz89iDIO9B9A-6" value="FSAC" style="rounded=0;whiteSpace=wrap;html=1;" parent="1" vertex="1">
          <mxGeometry x="-270" y="140" width="120" height="60" as="geometry" />
        </mxCell>
        <mxCell id="2QeHFksdaz89iDIO9B9A-7" value="Ready-for-Normal-Flight" style="rounded=0;whiteSpace=wrap;html=1;" parent="1" vertex="1">
          <mxGeometry x="-130" y="140" width="120" height="60" as="geometry" />
        </mxCell>
        <mxCell id="2QeHFksdaz89iDIO9B9A-8" value="Flight" style="rounded=0;whiteSpace=wrap;html=1;" parent="1" vertex="1">
          <mxGeometry x="230" y="140" width="120" height="60" as="geometry" />
        </mxCell>
        <mxCell id="2QeHFksdaz89iDIO9B9A-9" value="Commissioning:" style="text;html=1;align=left;verticalAlign=top;whiteSpace=wrap;rounded=0;fontStyle=1" parent="1" vertex="1">
          <mxGeometry x="-560" y="100" width="100" height="30" as="geometry" />
        </mxCell>
        <mxCell id="2QeHFksdaz89iDIO9B9A-11" value="Operations:" style="text;html=1;align=left;verticalAlign=top;whiteSpace=wrap;rounded=0;fontStyle=1" parent="1" vertex="1">
          <mxGeometry x="220" y="100" width="100" height="30" as="geometry" />
        </mxCell>
        <mxCell id="2QeHFksdaz89iDIO9B9A-12" value="Support" style="rounded=0;whiteSpace=wrap;html=1;" parent="1" vertex="1">
          <mxGeometry x="370" y="140" width="120" height="60" as="geometry" />
        </mxCell>
        <mxCell id="2QeHFksdaz89iDIO9B9A-13" value="Support" style="rounded=0;whiteSpace=wrap;html=1;" parent="1" vertex="1">
          <mxGeometry x="10" y="140" width="120" height="60" as="geometry" />
        </mxCell>
        <mxCell id="2QeHFksdaz89iDIO9B9A-15" value="Move to the master commissioning document" style="text;html=1;align=center;verticalAlign=middle;whiteSpace=wrap;rounded=0;" parent="1" vertex="1">
          <mxGeometry x="-390" y="30" width="370" height="30" as="geometry" />
        </mxCell>
        <mxCell id="2QeHFksdaz89iDIO9B9A-17" value="Advice:&lt;br&gt;&lt;div&gt;FSAC: full battery&lt;br&gt;Bias: no wind, oscillations&lt;br&gt;Make sub-process&lt;br&gt;Tune with updated CTW from hover (BIAS Calibration)&lt;br&gt;Never tune with payload and fly with less payload&lt;/div&gt;" style="rounded=0;whiteSpace=wrap;html=1;" parent="1" vertex="1">
          <mxGeometry x="197.5" y="620" width="145" height="170" as="geometry" />
        </mxCell>
        <mxCell id="mLs2Mze-VJqQUgzR3Upy-1" value="Revision History" style="swimlane;fontStyle=0;childLayout=stackLayout;horizontal=1;startSize=30;horizontalStack=0;resizeParent=1;resizeParentMax=0;resizeLast=0;collapsible=1;marginBottom=0;whiteSpace=wrap;html=1;" vertex="1" parent="1">
          <mxGeometry x="-663" y="275.1399999999999" width="140" height="120" as="geometry" />
        </mxCell>
        <mxCell id="mLs2Mze-VJqQUgzR3Upy-2" value="Item 1" style="text;strokeColor=none;fillColor=none;align=left;verticalAlign=middle;spacingLeft=4;spacingRight=4;overflow=hidden;points=[[0,0.5],[1,0.5]];portConstraint=eastwest;rotatable=0;whiteSpace=wrap;html=1;" vertex="1" parent="mLs2Mze-VJqQUgzR3Upy-1">
          <mxGeometry y="30" width="140" height="30" as="geometry" />
        </mxCell>
        <mxCell id="mLs2Mze-VJqQUgzR3Upy-3" value="Item 2" style="text;strokeColor=none;fillColor=none;align=left;verticalAlign=middle;spacingLeft=4;spacingRight=4;overflow=hidden;points=[[0,0.5],[1,0.5]];portConstraint=eastwest;rotatable=0;whiteSpace=wrap;html=1;" vertex="1" parent="mLs2Mze-VJqQUgzR3Upy-1">
          <mxGeometry y="60" width="140" height="30" as="geometry" />
        </mxCell>
        <mxCell id="mLs2Mze-VJqQUgzR3Upy-4" value="Item 3" style="text;strokeColor=none;fillColor=none;align=left;verticalAlign=middle;spacingLeft=4;spacingRight=4;overflow=hidden;points=[[0,0.5],[1,0.5]];portConstraint=eastwest;rotatable=0;whiteSpace=wrap;html=1;" vertex="1" parent="mLs2Mze-VJqQUgzR3Upy-1">
          <mxGeometry y="90" width="140" height="30" as="geometry" />
        </mxCell>
        <mxCell id="mLs2Mze-VJqQUgzR3Upy-5" value="&lt;h1 style=&quot;margin-top: 0px;&quot;&gt;&lt;span style=&quot;background-color: transparent; color: light-dark(rgb(0, 0, 0), rgb(255, 255, 255));&quot;&gt;Scope&lt;/span&gt;&lt;/h1&gt;&lt;h1 style=&quot;margin-top: 0px;&quot;&gt;&lt;span style=&quot;background-color: transparent; color: light-dark(rgb(0, 0, 0), rgb(255, 255, 255)); font-size: 12px; font-weight: normal;&quot;&gt;This document details the Ready-To-Fly process. It shows the refined&amp;nbsp;&lt;/span&gt;&lt;/h1&gt;" style="text;html=1;whiteSpace=wrap;overflow=hidden;rounded=0;" vertex="1" parent="1">
          <mxGeometry x="-880" y="270" width="180" height="230" as="geometry" />
        </mxCell>
      </root>
    </mxGraphModel>
  </diagram>
</mxfile>
